<?xml version="1.0" standalone="no"?>
<!DOCTYPE svg PUBLIC "-//W3C//DTD SVG 20010904//EN"
 "http://www.w3.org/TR/2001/REC-SVG-20010904/DTD/svg10.dtd">
<svg version="1.0" xmlns="http://www.w3.org/2000/svg"
 width="516.000000pt" height="516.000000pt" viewBox="0 0 516.000000 516.000000"
 preserveAspectRatio="xMidYMid meet">
<metadata>
Created by potrace 1.14, written by Peter Selinger 2001-2017
</metadata>
<g transform="translate(0.000000,516.000000) scale(0.100000,-0.100000)"
fill="#000000" stroke="none">
<path d="M1852 4889 c-9 -4 -20 -5 -24 -3 -4 3 -9 0 -13 -5 -4 -7 -15 -7 -30
-1 -14 5 -25 6 -25 1 0 -5 -6 -8 -12 -8 -23 2 -112 -16 -152 -29 -21 -8 -42
-11 -47 -8 -5 3 -9 0 -9 -5 0 -6 -7 -11 -16 -11 -9 0 -28 -6 -42 -14 -30 -16
-66 -29 -68 -24 -1 2 -11 -5 -21 -15 -11 -9 -23 -14 -26 -10 -4 3 -7 2 -7 -3
0 -6 -16 -16 -35 -24 -19 -8 -35 -17 -35 -22 0 -4 -7 -8 -15 -8 -8 0 -15 -5
-15 -12 0 -6 -3 -9 -6 -5 -4 3 -12 1 -20 -6 -32 -28 -44 -37 -44 -32 0 5 -21
-11 -79 -62 -20 -18 -39 -33 -43 -33 -5 0 -8 -4 -8 -9 0 -5 -19 -28 -43 -52
-23 -24 -53 -60 -67 -79 -13 -19 -30 -39 -37 -43 -7 -4 -13 -13 -13 -18 0 -6
-12 -26 -26 -45 -15 -19 -22 -34 -18 -34 5 0 4 -4 -2 -8 -9 -6 -81 -124 -142
-233 -41 -74 -47 -84 -53 -89 -8 -7 -22 -44 -21 -52 1 -5 -3 -8 -8 -8 -6 0
-10 -7 -10 -15 0 -8 -4 -15 -9 -15 -5 0 -12 -11 -15 -25 -4 -14 -11 -25 -16
-25 -6 0 -10 -6 -10 -14 0 -8 -7 -22 -16 -30 -8 -9 -13 -16 -9 -16 3 0 -2 -11
-11 -25 -9 -14 -19 -23 -22 -21 -2 3 -16 -18 -30 -47 -14 -29 -29 -53 -34 -55
-4 -2 -8 -13 -8 -23 0 -11 -4 -17 -10 -14 -5 3 -10 -1 -10 -9 0 -14 -35 -74
-62 -106 -7 -8 -12 -16 -10 -18 5 -4 -70 -136 -82 -144 -6 -4 -7 -8 -2 -8 5 0
3 -8 -6 -17 -8 -10 -20 -29 -26 -43 -7 -14 -23 -44 -36 -67 -13 -23 -21 -44
-18 -47 3 -4 0 -6 -6 -6 -7 0 -11 -3 -10 -7 1 -5 -3 -18 -10 -31 -7 -12 -10
-27 -7 -32 3 -6 2 -10 -4 -10 -8 0 -30 -51 -35 -83 -1 -7 -5 -17 -9 -24 -4 -6
-8 -23 -9 -37 -1 -14 -5 -26 -8 -26 -3 0 -6 -8 -6 -17 0 -10 -4 -43 -9 -73 -9
-67 -15 -321 -7 -335 4 -5 8 -28 9 -49 4 -47 42 -207 53 -221 4 -5 11 -21 15
-35 9 -30 37 -93 45 -100 3 -3 16 -29 29 -57 14 -29 28 -53 33 -53 5 0 6 -4 3
-10 -3 -5 -2 -10 3 -10 6 0 13 -11 16 -25 4 -14 11 -25 17 -25 6 0 7 -4 4 -10
-3 -5 -2 -10 2 -10 5 0 17 -18 27 -40 10 -22 22 -40 27 -40 5 0 9 -6 9 -14 0
-16 30 -76 30 -61 1 6 10 -8 21 -30 11 -22 30 -58 43 -80 13 -22 22 -43 19
-47 -2 -5 0 -8 6 -8 5 0 22 -22 37 -50 15 -27 31 -50 36 -50 4 0 8 -7 8 -15 0
-8 5 -15 10 -15 6 0 10 -6 10 -13 0 -7 18 -41 40 -75 22 -33 40 -65 40 -71 0
-5 3 -11 8 -13 4 -2 20 -28 36 -58 16 -30 35 -62 42 -71 8 -8 14 -23 14 -31 0
-9 4 -18 8 -20 7 -3 66 -97 67 -108 1 -7 41 -72 52 -85 5 -5 15 -25 22 -42 7
-18 17 -33 22 -33 5 0 9 -5 9 -11 0 -11 46 -80 79 -118 12 -13 21 -28 21 -33
0 -5 5 -6 10 -3 5 3 10 1 10 -5 0 -14 106 -116 135 -130 5 -3 9 -8 8 -12 -2
-5 0 -7 5 -6 4 1 27 -11 52 -27 66 -42 132 -75 142 -69 4 3 8 1 8 -4 0 -9 69
-34 81 -29 3 1 12 -3 20 -10 8 -6 26 -14 39 -16 14 -3 36 -8 50 -11 14 -3 47
-8 73 -11 26 -2 52 -7 57 -10 5 -3 12 -1 15 5 5 8 11 8 20 0 9 -7 15 -7 19 -1
6 10 37 8 55 -4 5 -3 13 -1 16 5 5 8 11 7 21 -1 11 -9 18 -8 31 2 9 8 19 12
22 11 31 -19 40 -21 46 -12 5 8 11 8 19 1 9 -7 16 -7 23 0 7 7 13 7 17 1 4 -7
17 -7 35 -2 17 5 33 4 39 -2 6 -6 12 -6 16 1 5 8 13 8 27 1 13 -8 25 -7 40 0
14 8 24 8 32 1 8 -6 18 -6 27 -1 9 5 19 5 27 -1 7 -6 18 -7 25 -3 18 11 48 12
54 2 3 -5 12 -4 19 2 10 8 15 8 20 0 5 -7 11 -8 19 -1 6 6 18 6 25 2 8 -5 26
-5 42 -1 15 5 30 5 33 2 9 -8 113 -5 128 4 7 4 8 3 4 -5 -7 -11 15 -10 60 4 6
2 16 0 23 -5 7 -4 28 -4 46 0 18 4 39 4 46 -1 7 -4 22 -3 32 3 15 7 18 7 12
-2 -6 -9 -3 -9 13 -1 12 6 23 7 26 2 5 -8 58 -6 83 4 7 2 15 0 18 -4 3 -5 21
-5 40 -1 19 4 35 5 35 1 0 -9 63 -7 78 3 7 4 19 3 27 -4 9 -8 15 -8 20 0 3 6
11 8 16 5 15 -10 49 -14 49 -7 0 4 21 7 48 8 26 0 63 4 82 8 19 4 42 8 50 10
9 1 21 5 28 10 6 4 12 5 12 2 0 -3 18 1 40 9 22 8 40 12 40 8 0 -3 6 0 14 6 8
7 22 13 32 15 11 3 33 10 49 17 17 7 33 12 38 11 4 -1 7 3 7 8 0 5 3 9 8 8 10
-3 116 53 120 63 2 5 9 9 16 9 7 0 22 9 34 20 12 12 22 18 22 15 0 -6 37 24
59 47 8 10 20 18 26 18 13 0 75 58 75 71 0 6 3 8 8 6 4 -2 17 7 29 20 12 13
19 23 15 23 -3 0 8 14 26 30 18 17 30 30 25 30 -4 0 0 5 10 11 9 5 17 17 17
24 0 8 5 15 10 15 6 0 10 7 10 15 0 7 8 19 18 24 9 6 13 11 8 11 -5 0 1 8 12
19 12 10 19 21 15 25 -3 3 0 6 7 6 7 0 10 3 7 6 -4 4 2 19 12 33 10 14 21 34
24 44 4 9 11 17 17 17 6 0 9 4 6 8 -3 5 4 21 15 38 11 16 27 45 36 64 9 19 20
37 24 40 3 3 16 25 29 49 12 25 29 51 36 59 8 7 14 20 14 28 0 8 5 14 11 14 5
0 8 4 4 9 -3 5 2 16 10 24 8 9 19 26 25 39 15 34 32 60 54 80 10 10 15 18 10
18 -5 0 -4 4 2 8 6 4 21 27 35 52 13 25 30 51 37 58 6 7 12 18 12 24 0 5 9 23
21 39 11 16 17 29 12 29 -4 0 0 5 10 11 9 6 15 14 12 18 -2 5 2 14 10 21 8 7
15 19 15 26 0 8 5 14 10 14 6 0 10 6 10 14 0 7 9 25 20 38 10 14 16 28 13 32
-3 3 0 6 7 6 7 0 11 3 7 6 -3 3 -2 11 4 18 22 27 57 85 53 89 -3 2 2 10 11 17
8 7 15 19 15 26 0 8 5 14 11 14 5 0 8 4 4 9 -3 6 1 13 9 18 8 4 15 10 16 13 6
32 14 50 22 50 5 0 7 4 4 9 -3 4 1 17 9 27 8 10 15 27 15 37 0 9 5 17 12 17 6
0 9 3 6 6 -4 3 0 20 7 37 7 18 11 40 10 50 -2 10 1 14 8 10 6 -4 8 0 4 10 -4
10 -2 17 4 17 6 0 9 9 6 20 -3 11 -2 20 2 20 4 0 8 6 8 13 1 6 4 35 8 62 11
75 7 330 -5 330 -2 0 -4 11 -5 25 -1 14 -7 38 -14 54 -6 16 -10 35 -7 42 2 6
-1 17 -7 23 -6 6 -12 21 -14 33 -2 12 -9 26 -16 30 -6 4 -8 8 -3 8 5 0 3 6 -3
13 -6 8 -8 17 -4 20 3 4 1 7 -5 7 -6 0 -13 14 -17 30 -4 17 -11 30 -16 30 -6
0 -7 5 -4 10 3 6 1 10 -4 10 -6 0 -11 7 -11 15 0 8 -4 15 -10 15 -5 0 -9 3 -9
8 3 12 -23 73 -28 68 -3 -3 -17 18 -31 47 -14 29 -29 54 -34 55 -4 2 -6 8 -2
13 3 5 0 9 -6 9 -6 0 -9 4 -6 9 3 5 -1 12 -10 15 -8 3 -13 10 -10 14 3 5 -4
18 -14 30 -11 12 -20 28 -20 37 0 8 -4 15 -10 15 -5 0 -10 6 -10 14 0 7 -7 19
-15 26 -8 7 -12 16 -9 21 3 5 0 9 -5 9 -6 0 -11 7 -11 15 0 8 -4 15 -10 15 -5
0 -10 7 -10 15 0 8 -5 15 -10 15 -6 0 -9 3 -8 8 3 7 -60 123 -72 132 -3 3 -12
20 -19 37 -8 19 -18 30 -25 26 -6 -3 -8 -3 -4 2 4 4 2 17 -5 28 -7 12 -24 41
-39 66 -15 25 -35 62 -45 81 -9 19 -26 45 -37 58 -11 12 -16 22 -11 22 4 0 1
8 -8 18 -8 9 -17 24 -19 32 -2 8 -10 22 -18 30 -8 8 -16 22 -18 30 -2 8 -10
22 -18 31 -8 9 -11 19 -7 22 3 4 1 7 -5 7 -7 0 -12 6 -12 14 0 7 -7 19 -15 26
-8 7 -12 16 -9 21 3 5 0 9 -5 9 -6 0 -11 7 -11 15 0 8 -4 15 -10 15 -5 0 -10
7 -10 15 0 8 -5 15 -11 15 -5 0 -8 4 -5 9 3 5 -1 11 -9 15 -8 3 -15 11 -15 18
0 8 -9 20 -19 28 -11 7 -18 17 -15 22 3 4 -2 11 -10 14 -9 3 -16 13 -16 21 0
8 -4 11 -10 8 -5 -3 -10 -2 -10 4 0 9 -98 111 -107 111 -2 0 -14 10 -27 23
-37 35 -66 57 -66 50 0 -4 -9 3 -21 15 -11 12 -24 20 -30 17 -5 -4 -9 0 -9 7
-1 13 -78 55 -92 50 -5 -1 -8 2 -8 8 0 5 -7 10 -15 10 -8 0 -15 5 -15 10 0 6
-4 10 -9 10 -5 0 -26 8 -47 17 -22 9 -41 17 -44 18 -3 0 -11 4 -17 8 -7 5 -17
5 -23 2 -5 -3 -10 -1 -10 4 0 6 -9 11 -20 11 -11 0 -20 3 -20 8 0 4 -11 8 -25
9 -14 1 -36 4 -50 5 -14 1 -25 5 -25 9 0 4 -15 8 -32 8 -38 0 -99 9 -106 16
-3 2 -13 0 -23 -6 -13 -7 -19 -6 -19 1 0 8 -6 8 -20 0 -11 -6 -20 -7 -20 -2 0
4 -55 9 -122 9 -68 1 -157 2 -198 3 -41 1 -79 1 -85 0 -5 -1 -53 -1 -105 0
-288 5 -853 4 -868 -1z m1223 -1180 c17 -2 36 0 43 4 6 5 12 4 12 -1 0 -6 18
-6 47 -1 55 11 62 6 105 -70 17 -31 35 -57 40 -59 4 -2 8 -10 8 -18 0 -8 5
-14 11 -14 5 0 8 -4 4 -9 -3 -5 2 -16 10 -25 9 -8 15 -17 13 -18 -3 -4 35 -62
45 -69 5 -3 9 -10 9 -15 2 -22 11 -44 18 -44 4 0 13 -15 21 -32 7 -18 15 -35
18 -38 10 -8 29 -42 57 -97 14 -29 29 -53 34 -53 5 0 11 -13 15 -30 4 -16 10
-30 15 -30 4 0 10 -8 13 -17 4 -10 20 -40 37 -68 17 -27 33 -57 37 -65 4 -8 9
-17 12 -20 3 -3 15 -23 26 -45 11 -22 29 -53 41 -70 12 -16 25 -40 29 -52 3
-13 11 -23 16 -23 5 0 9 -3 8 -7 -2 -16 14 -53 22 -53 5 0 9 -7 9 -15 0 -8 3
-15 8 -15 4 0 15 -17 24 -39 17 -38 15 -81 -4 -81 -5 0 -6 -4 -3 -10 3 -5 2
-10 -3 -10 -5 0 -12 -8 -15 -17 -7 -21 -45 -88 -69 -122 -9 -13 -15 -28 -13
-32 3 -4 -2 -10 -11 -13 -8 -3 -12 -10 -9 -16 3 -5 1 -10 -4 -10 -6 0 -11 -7
-11 -15 0 -8 -4 -15 -10 -15 -5 0 -10 -4 -10 -10 0 -5 -13 -31 -29 -59 -16
-27 -27 -52 -24 -55 4 -3 2 -6 -4 -6 -6 0 -23 -25 -38 -55 -16 -30 -32 -55
-37 -55 -5 0 -7 -4 -3 -9 3 -5 -2 -17 -11 -25 -8 -9 -12 -16 -7 -16 4 0 4 -4
-2 -8 -10 -7 -25 -31 -54 -87 -9 -16 -20 -33 -24 -36 -5 -3 -9 -13 -11 -22 -1
-9 -13 -28 -26 -42 -13 -14 -20 -25 -15 -25 4 0 1 -8 -8 -18 -10 -10 -14 -22
-10 -25 3 -4 0 -7 -7 -7 -7 0 -11 -3 -7 -6 3 -3 2 -11 -4 -18 -21 -26 -58 -86
-52 -86 4 0 -3 -10 -15 -23 -12 -13 -19 -27 -15 -30 3 -4 1 -7 -6 -7 -7 0 -10
-4 -6 -9 3 -6 -3 -14 -12 -20 -10 -6 -14 -11 -10 -11 5 0 -2 -15 -14 -32 -32
-46 -49 -62 -49 -48 0 6 -4 9 -9 5 -14 -8 -345 -10 -359 -1 -7 4 -12 4 -12 -1
0 -12 -134 -10 -142 2 -5 7 -8 7 -8 0 0 -5 -25 -10 -55 -10 -30 0 -55 2 -55 5
0 7 -127 3 -139 -5 -6 -3 -11 -1 -11 5 0 6 -5 8 -12 3 -7 -4 -26 -6 -41 -4
-16 1 -133 3 -261 4 -252 2 -248 1 -273 60 -7 15 -17 27 -22 27 -6 0 -8 7 -5
15 4 8 1 15 -6 15 -6 0 -9 4 -6 9 4 5 3 11 -2 13 -10 4 -65 98 -68 115 -1 7
-9 20 -18 29 -9 8 -14 20 -11 25 4 5 2 9 -3 9 -5 0 -15 12 -23 28 -8 15 -16
29 -19 32 -5 5 -43 75 -64 117 -6 13 -14 23 -18 23 -5 0 -8 9 -8 20 0 11 -4
20 -10 20 -5 0 -10 7 -10 15 0 8 -4 15 -10 15 -5 0 -10 9 -10 21 0 11 -4 17
-10 14 -5 -3 -10 -3 -11 2 -2 27 -9 47 -17 52 -5 3 -15 20 -24 36 -42 82 -65
122 -80 139 -10 10 -15 23 -12 28 3 4 0 8 -6 8 -6 0 -8 5 -5 10 3 6 3 10 -2
10 -4 0 -17 18 -27 40 -10 22 -23 37 -29 33 -6 -3 -7 -1 -3 5 3 6 -7 32 -24
58 -16 26 -30 54 -30 61 0 7 -5 13 -11 13 -5 0 -7 5 -4 10 3 6 2 10 -4 10 -18
0 5 58 50 125 14 22 29 50 33 63 4 12 12 22 17 22 5 0 9 7 9 16 0 8 7 22 15
31 8 8 13 18 10 23 -3 4 2 11 11 14 8 3 13 10 10 15 -4 5 -2 11 3 13 4 1 25
35 46 73 21 39 44 77 51 86 8 9 12 18 9 21 -3 3 1 11 10 18 8 7 15 19 15 26 0
8 3 14 8 14 4 0 16 19 27 43 11 23 22 44 25 47 10 9 41 65 53 93 6 15 15 27
20 27 4 0 6 4 3 9 -3 4 3 16 14 26 11 10 17 22 14 26 -3 5 0 9 5 9 6 0 11 6
11 14 0 8 6 21 13 28 7 7 20 28 28 46 7 17 18 32 22 32 5 0 6 4 3 9 -4 5 -3
11 1 13 5 1 19 24 33 51 13 26 28 47 33 47 4 0 6 4 3 9 -3 5 1 14 9 21 8 7 15
19 15 27 0 8 5 11 10 8 6 -3 10 0 10 7 0 11 108 13 582 12 321 -1 597 -3 613
-5z"/>
</g>
</svg>
